<mxfile host="Electron" agent="Mozilla/5.0 (Macintosh; Intel Mac OS X 10_15_7) AppleWebKit/537.36 (KHTML, like Gecko) draw.io/24.7.17 Chrome/128.0.6613.36 Electron/32.0.1 Safari/537.36" version="24.7.17">
  <diagram name="PÃ¡gina-1" id="QPiIur_WkiY9lEq3GOOw">
    <mxGraphModel dx="1194" dy="1773" grid="1" gridSize="10" guides="1" tooltips="1" connect="1" arrows="1" fold="1" page="1" pageScale="1" pageWidth="827" pageHeight="1169" math="0" shadow="0">
      <root>
        <mxCell id="0" />
        <mxCell id="1" parent="0" />
        <mxCell id="4PF7pW_W-e1I4brOJTEJ-1" value="Personajes" style="swimlane;childLayout=stackLayout;horizontal=1;startSize=50;horizontalStack=0;rounded=1;fontSize=14;fontStyle=0;strokeWidth=2;resizeParent=0;resizeLast=1;shadow=0;dashed=0;align=center;arcSize=4;whiteSpace=wrap;html=1;" parent="1" vertex="1">
          <mxGeometry x="310" y="70" width="160" height="210" as="geometry">
            <mxRectangle x="40" y="80" width="100" height="50" as="alternateBounds" />
          </mxGeometry>
        </mxCell>
        <mxCell id="4PF7pW_W-e1I4brOJTEJ-2" value="+id_personaje&lt;div&gt;+desc_personaje&lt;br&gt;&lt;div&gt;+id_familia&lt;br&gt;+id_sexo&lt;/div&gt;&lt;div&gt;+id_matriomonio&lt;br&gt;&lt;div&gt;+id_lugar_residencia&lt;/div&gt;&lt;div&gt;+id_profesion&lt;/div&gt;&lt;/div&gt;&lt;/div&gt;&lt;div&gt;+id_lugar_profesion&lt;/div&gt;&lt;div&gt;+date_insert&lt;div&gt;+date_modification&lt;/div&gt;&lt;/div&gt;" style="align=left;strokeColor=none;fillColor=none;spacingLeft=4;fontSize=12;verticalAlign=top;resizable=0;rotatable=0;part=1;html=1;" parent="4PF7pW_W-e1I4brOJTEJ-1" vertex="1">
          <mxGeometry y="50" width="160" height="160" as="geometry" />
        </mxCell>
        <mxCell id="4PF7pW_W-e1I4brOJTEJ-3" value="Familias" style="swimlane;childLayout=stackLayout;horizontal=1;startSize=50;horizontalStack=0;rounded=1;fontSize=14;fontStyle=0;strokeWidth=2;resizeParent=0;resizeLast=1;shadow=0;dashed=0;align=center;arcSize=4;whiteSpace=wrap;html=1;" parent="1" vertex="1">
          <mxGeometry x="160" y="350" width="160" height="120" as="geometry" />
        </mxCell>
        <mxCell id="4PF7pW_W-e1I4brOJTEJ-4" value="+id_family&lt;br&gt;+desc_family&lt;br&gt;+date_insert&lt;div&gt;+date_modification&lt;/div&gt;" style="align=left;strokeColor=none;fillColor=none;spacingLeft=4;fontSize=12;verticalAlign=top;resizable=0;rotatable=0;part=1;html=1;" parent="4PF7pW_W-e1I4brOJTEJ-3" vertex="1">
          <mxGeometry y="50" width="160" height="70" as="geometry" />
        </mxCell>
        <mxCell id="4PF7pW_W-e1I4brOJTEJ-10" value="Mascotas" style="swimlane;childLayout=stackLayout;horizontal=1;startSize=50;horizontalStack=0;rounded=1;fontSize=14;fontStyle=0;strokeWidth=2;resizeParent=0;resizeLast=1;shadow=0;dashed=0;align=center;arcSize=4;whiteSpace=wrap;html=1;" parent="1" vertex="1">
          <mxGeometry x="472" y="349" width="158" height="141" as="geometry" />
        </mxCell>
        <mxCell id="4PF7pW_W-e1I4brOJTEJ-11" value="+id_pet&lt;div&gt;+id_family&lt;br&gt;+desc_pet&lt;br&gt;+date_insert&lt;div&gt;+date_modification&lt;/div&gt;&lt;/div&gt;" style="align=left;strokeColor=none;fillColor=none;spacingLeft=4;fontSize=12;verticalAlign=top;resizable=0;rotatable=0;part=1;html=1;" parent="4PF7pW_W-e1I4brOJTEJ-10" vertex="1">
          <mxGeometry y="50" width="158" height="91" as="geometry" />
        </mxCell>
        <mxCell id="4PF7pW_W-e1I4brOJTEJ-22" value="" style="endArrow=none;html=1;rounded=0;" parent="1" edge="1">
          <mxGeometry relative="1" as="geometry">
            <mxPoint x="320" y="390" as="sourcePoint" />
            <mxPoint x="470" y="390" as="targetPoint" />
          </mxGeometry>
        </mxCell>
        <mxCell id="4PF7pW_W-e1I4brOJTEJ-23" value="1" style="resizable=0;html=1;whiteSpace=wrap;align=left;verticalAlign=bottom;" parent="4PF7pW_W-e1I4brOJTEJ-22" connectable="0" vertex="1">
          <mxGeometry x="-1" relative="1" as="geometry" />
        </mxCell>
        <mxCell id="4PF7pW_W-e1I4brOJTEJ-24" value="N" style="resizable=0;html=1;whiteSpace=wrap;align=right;verticalAlign=bottom;" parent="4PF7pW_W-e1I4brOJTEJ-22" connectable="0" vertex="1">
          <mxGeometry x="1" relative="1" as="geometry" />
        </mxCell>
        <mxCell id="4PF7pW_W-e1I4brOJTEJ-25" value="" style="endArrow=none;html=1;rounded=0;entryX=0.056;entryY=1.01;entryDx=0;entryDy=0;entryPerimeter=0;exitX=1;exitY=0;exitDx=0;exitDy=0;" parent="1" source="4PF7pW_W-e1I4brOJTEJ-3" target="4PF7pW_W-e1I4brOJTEJ-2" edge="1">
          <mxGeometry relative="1" as="geometry">
            <mxPoint x="320" y="320" as="sourcePoint" />
            <mxPoint x="314.03999999999996" y="272.04999999999995" as="targetPoint" />
          </mxGeometry>
        </mxCell>
        <mxCell id="4PF7pW_W-e1I4brOJTEJ-26" value="1" style="resizable=0;html=1;whiteSpace=wrap;align=left;verticalAlign=bottom;" parent="4PF7pW_W-e1I4brOJTEJ-25" connectable="0" vertex="1">
          <mxGeometry x="-1" relative="1" as="geometry">
            <mxPoint x="-10" as="offset" />
          </mxGeometry>
        </mxCell>
        <mxCell id="4PF7pW_W-e1I4brOJTEJ-27" value="N" style="resizable=0;html=1;whiteSpace=wrap;align=right;verticalAlign=bottom;" parent="4PF7pW_W-e1I4brOJTEJ-25" connectable="0" vertex="1">
          <mxGeometry x="1" relative="1" as="geometry">
            <mxPoint y="19" as="offset" />
          </mxGeometry>
        </mxCell>
        <mxCell id="4PF7pW_W-e1I4brOJTEJ-28" value="Profesiones" style="swimlane;childLayout=stackLayout;horizontal=1;startSize=50;horizontalStack=0;rounded=1;fontSize=14;fontStyle=0;strokeWidth=2;resizeParent=0;resizeLast=1;shadow=0;dashed=0;align=center;arcSize=4;whiteSpace=wrap;html=1;" parent="1" vertex="1">
          <mxGeometry x="30" y="187" width="160" height="120" as="geometry" />
        </mxCell>
        <mxCell id="4PF7pW_W-e1I4brOJTEJ-29" value="+id_ocupation&lt;br&gt;+desc_ocupation&lt;br&gt;+date_insert&lt;div&gt;+date_modification&lt;/div&gt;" style="align=left;strokeColor=none;fillColor=none;spacingLeft=4;fontSize=12;verticalAlign=top;resizable=0;rotatable=0;part=1;html=1;" parent="4PF7pW_W-e1I4brOJTEJ-28" vertex="1">
          <mxGeometry y="50" width="160" height="70" as="geometry" />
        </mxCell>
        <mxCell id="4PF7pW_W-e1I4brOJTEJ-30" value="Sexos" style="swimlane;childLayout=stackLayout;horizontal=1;startSize=50;horizontalStack=0;rounded=1;fontSize=14;fontStyle=0;strokeWidth=2;resizeParent=0;resizeLast=1;shadow=0;dashed=0;align=center;arcSize=4;whiteSpace=wrap;html=1;" parent="1" vertex="1">
          <mxGeometry x="80" y="-40" width="160" height="120" as="geometry" />
        </mxCell>
        <mxCell id="4PF7pW_W-e1I4brOJTEJ-31" value="+id_sexo&lt;br&gt;+desc_sexo&lt;br&gt;+date_insert&lt;div&gt;+date_modification&lt;/div&gt;" style="align=left;strokeColor=none;fillColor=none;spacingLeft=4;fontSize=12;verticalAlign=top;resizable=0;rotatable=0;part=1;html=1;" parent="4PF7pW_W-e1I4brOJTEJ-30" vertex="1">
          <mxGeometry y="50" width="160" height="70" as="geometry" />
        </mxCell>
        <mxCell id="4PF7pW_W-e1I4brOJTEJ-32" value="" style="endArrow=none;html=1;rounded=0;entryX=1;entryY=0.25;entryDx=0;entryDy=0;exitX=-0.017;exitY=0.604;exitDx=0;exitDy=0;exitPerimeter=0;" parent="1" source="4PF7pW_W-e1I4brOJTEJ-2" target="4PF7pW_W-e1I4brOJTEJ-28" edge="1">
          <mxGeometry relative="1" as="geometry">
            <mxPoint x="240" y="210" as="sourcePoint" />
            <mxPoint x="390" y="210" as="targetPoint" />
          </mxGeometry>
        </mxCell>
        <mxCell id="4PF7pW_W-e1I4brOJTEJ-33" value="1" style="resizable=0;html=1;whiteSpace=wrap;align=left;verticalAlign=bottom;" parent="4PF7pW_W-e1I4brOJTEJ-32" connectable="0" vertex="1">
          <mxGeometry x="-1" relative="1" as="geometry">
            <mxPoint x="-116" as="offset" />
          </mxGeometry>
        </mxCell>
        <mxCell id="4PF7pW_W-e1I4brOJTEJ-34" value="N" style="resizable=0;html=1;whiteSpace=wrap;align=right;verticalAlign=bottom;" parent="4PF7pW_W-e1I4brOJTEJ-32" connectable="0" vertex="1">
          <mxGeometry x="1" relative="1" as="geometry">
            <mxPoint x="118" as="offset" />
          </mxGeometry>
        </mxCell>
        <mxCell id="4PF7pW_W-e1I4brOJTEJ-35" value="" style="endArrow=none;html=1;rounded=0;entryX=1;entryY=0;entryDx=0;entryDy=0;exitX=0;exitY=0;exitDx=0;exitDy=0;" parent="1" source="4PF7pW_W-e1I4brOJTEJ-1" target="4PF7pW_W-e1I4brOJTEJ-31" edge="1">
          <mxGeometry relative="1" as="geometry">
            <mxPoint x="357" y="31" as="sourcePoint" />
            <mxPoint x="240" y="30" as="targetPoint" />
          </mxGeometry>
        </mxCell>
        <mxCell id="4PF7pW_W-e1I4brOJTEJ-36" value="1" style="resizable=0;html=1;whiteSpace=wrap;align=left;verticalAlign=bottom;" parent="4PF7pW_W-e1I4brOJTEJ-35" connectable="0" vertex="1">
          <mxGeometry x="-1" relative="1" as="geometry">
            <mxPoint x="-69" y="-59" as="offset" />
          </mxGeometry>
        </mxCell>
        <mxCell id="4PF7pW_W-e1I4brOJTEJ-37" value="N" style="resizable=0;html=1;whiteSpace=wrap;align=right;verticalAlign=bottom;" parent="4PF7pW_W-e1I4brOJTEJ-35" connectable="0" vertex="1">
          <mxGeometry x="1" relative="1" as="geometry">
            <mxPoint x="80" y="60" as="offset" />
          </mxGeometry>
        </mxCell>
        <mxCell id="4PF7pW_W-e1I4brOJTEJ-38" value="Lugares" style="swimlane;childLayout=stackLayout;horizontal=1;startSize=50;horizontalStack=0;rounded=1;fontSize=14;fontStyle=0;strokeWidth=2;resizeParent=0;resizeLast=1;shadow=0;dashed=0;align=center;arcSize=4;whiteSpace=wrap;html=1;" parent="1" vertex="1">
          <mxGeometry x="590" y="160" width="160" height="120" as="geometry" />
        </mxCell>
        <mxCell id="4PF7pW_W-e1I4brOJTEJ-39" value="+id_lugar&lt;br&gt;+desc_lugar&lt;div&gt;+id_ciudad&lt;br&gt;+date_insert&lt;div&gt;&lt;span style=&quot;background-color: initial;&quot;&gt;+date_modification&lt;/span&gt;&lt;br&gt;&lt;/div&gt;&lt;/div&gt;" style="align=left;strokeColor=none;fillColor=none;spacingLeft=4;fontSize=12;verticalAlign=top;resizable=0;rotatable=0;part=1;html=1;" parent="4PF7pW_W-e1I4brOJTEJ-38" vertex="1">
          <mxGeometry y="50" width="160" height="70" as="geometry" />
        </mxCell>
        <mxCell id="4PF7pW_W-e1I4brOJTEJ-40" value="" style="endArrow=none;html=1;rounded=0;entryX=1;entryY=0.25;entryDx=0;entryDy=0;exitX=-0.017;exitY=0.604;exitDx=0;exitDy=0;exitPerimeter=0;" parent="1" edge="1">
          <mxGeometry relative="1" as="geometry">
            <mxPoint x="587" y="201" as="sourcePoint" />
            <mxPoint x="470" y="200" as="targetPoint" />
          </mxGeometry>
        </mxCell>
        <mxCell id="4PF7pW_W-e1I4brOJTEJ-41" value="1" style="resizable=0;html=1;whiteSpace=wrap;align=left;verticalAlign=bottom;" parent="4PF7pW_W-e1I4brOJTEJ-40" connectable="0" vertex="1">
          <mxGeometry x="-1" relative="1" as="geometry">
            <mxPoint x="-17" y="-1" as="offset" />
          </mxGeometry>
        </mxCell>
        <mxCell id="4PF7pW_W-e1I4brOJTEJ-42" value="N" style="resizable=0;html=1;whiteSpace=wrap;align=right;verticalAlign=bottom;" parent="4PF7pW_W-e1I4brOJTEJ-40" connectable="0" vertex="1">
          <mxGeometry x="1" relative="1" as="geometry">
            <mxPoint x="13" as="offset" />
          </mxGeometry>
        </mxCell>
        <mxCell id="4PF7pW_W-e1I4brOJTEJ-43" value="Ciudades" style="swimlane;childLayout=stackLayout;horizontal=1;startSize=50;horizontalStack=0;rounded=1;fontSize=14;fontStyle=0;strokeWidth=2;resizeParent=0;resizeLast=1;shadow=0;dashed=0;align=center;arcSize=4;whiteSpace=wrap;html=1;" parent="1" vertex="1">
          <mxGeometry x="868" y="160" width="160" height="120" as="geometry" />
        </mxCell>
        <mxCell id="4PF7pW_W-e1I4brOJTEJ-44" value="+id_city&lt;br&gt;+desc_city&lt;br&gt;+date_insert&lt;div&gt;+date_modification&lt;/div&gt;" style="align=left;strokeColor=none;fillColor=none;spacingLeft=4;fontSize=12;verticalAlign=top;resizable=0;rotatable=0;part=1;html=1;" parent="4PF7pW_W-e1I4brOJTEJ-43" vertex="1">
          <mxGeometry y="50" width="160" height="70" as="geometry" />
        </mxCell>
        <mxCell id="4PF7pW_W-e1I4brOJTEJ-45" value="" style="endArrow=none;html=1;rounded=0;entryX=1;entryY=0.25;entryDx=0;entryDy=0;exitX=-0.017;exitY=0.604;exitDx=0;exitDy=0;exitPerimeter=0;" parent="1" edge="1">
          <mxGeometry relative="1" as="geometry">
            <mxPoint x="867" y="211" as="sourcePoint" />
            <mxPoint x="750" y="210" as="targetPoint" />
          </mxGeometry>
        </mxCell>
        <mxCell id="4PF7pW_W-e1I4brOJTEJ-46" value="1" style="resizable=0;html=1;whiteSpace=wrap;align=left;verticalAlign=bottom;" parent="4PF7pW_W-e1I4brOJTEJ-45" connectable="0" vertex="1">
          <mxGeometry x="-1" relative="1" as="geometry">
            <mxPoint x="-17" y="-1" as="offset" />
          </mxGeometry>
        </mxCell>
        <mxCell id="4PF7pW_W-e1I4brOJTEJ-47" value="N" style="resizable=0;html=1;whiteSpace=wrap;align=right;verticalAlign=bottom;" parent="4PF7pW_W-e1I4brOJTEJ-45" connectable="0" vertex="1">
          <mxGeometry x="1" relative="1" as="geometry">
            <mxPoint x="13" as="offset" />
          </mxGeometry>
        </mxCell>
        <mxCell id="4PF7pW_W-e1I4brOJTEJ-49" value="Matrimonios" style="swimlane;childLayout=stackLayout;horizontal=1;startSize=50;horizontalStack=0;rounded=1;fontSize=14;fontStyle=0;strokeWidth=2;resizeParent=0;resizeLast=1;shadow=0;dashed=0;align=center;arcSize=4;whiteSpace=wrap;html=1;" parent="1" vertex="1">
          <mxGeometry x="530" y="-50" width="160" height="120" as="geometry" />
        </mxCell>
        <mxCell id="4PF7pW_W-e1I4brOJTEJ-50" value="+id_status&lt;br&gt;+desc_status&lt;br&gt;+date_insert&lt;div&gt;+date_modification&lt;/div&gt;" style="align=left;strokeColor=none;fillColor=none;spacingLeft=4;fontSize=12;verticalAlign=top;resizable=0;rotatable=0;part=1;html=1;" parent="4PF7pW_W-e1I4brOJTEJ-49" vertex="1">
          <mxGeometry y="50" width="160" height="70" as="geometry" />
        </mxCell>
        <mxCell id="4PF7pW_W-e1I4brOJTEJ-51" value="" style="endArrow=none;html=1;rounded=0;entryX=1;entryY=0.25;entryDx=0;entryDy=0;exitX=-0.017;exitY=0.419;exitDx=0;exitDy=0;exitPerimeter=0;" parent="1" source="4PF7pW_W-e1I4brOJTEJ-49" edge="1">
          <mxGeometry relative="1" as="geometry">
            <mxPoint x="517" y="69.94999999999999" as="sourcePoint" />
            <mxPoint x="400" y="68.94999999999999" as="targetPoint" />
          </mxGeometry>
        </mxCell>
        <mxCell id="4PF7pW_W-e1I4brOJTEJ-52" value="1" style="resizable=0;html=1;whiteSpace=wrap;align=left;verticalAlign=bottom;" parent="4PF7pW_W-e1I4brOJTEJ-51" connectable="0" vertex="1">
          <mxGeometry x="-1" relative="1" as="geometry">
            <mxPoint x="-17" y="-1" as="offset" />
          </mxGeometry>
        </mxCell>
        <mxCell id="4PF7pW_W-e1I4brOJTEJ-53" value="N" style="resizable=0;html=1;whiteSpace=wrap;align=right;verticalAlign=bottom;" parent="4PF7pW_W-e1I4brOJTEJ-51" connectable="0" vertex="1">
          <mxGeometry x="1" relative="1" as="geometry">
            <mxPoint x="11" y="-5" as="offset" />
          </mxGeometry>
        </mxCell>
        <mxCell id="4PF7pW_W-e1I4brOJTEJ-54" value="" style="shape=table;startSize=0;container=1;collapsible=1;childLayout=tableLayout;fixedRows=1;rowLines=0;fontStyle=0;align=center;resizeLast=1;strokeColor=none;fillColor=none;collapsible=0;" parent="1" vertex="1">
          <mxGeometry x="260" y="120" width="50" height="30" as="geometry" />
        </mxCell>
        <mxCell id="4PF7pW_W-e1I4brOJTEJ-55" value="" style="shape=tableRow;horizontal=0;startSize=0;swimlaneHead=0;swimlaneBody=0;fillColor=none;collapsible=0;dropTarget=0;points=[[0,0.5],[1,0.5]];portConstraint=eastwest;top=0;left=0;right=0;bottom=1;" parent="4PF7pW_W-e1I4brOJTEJ-54" vertex="1">
          <mxGeometry width="50" height="30" as="geometry" />
        </mxCell>
        <mxCell id="4PF7pW_W-e1I4brOJTEJ-56" value="PK" style="shape=partialRectangle;connectable=0;fillColor=none;top=0;left=0;bottom=0;right=0;fontStyle=1;overflow=hidden;whiteSpace=wrap;html=1;" parent="4PF7pW_W-e1I4brOJTEJ-55" vertex="1">
          <mxGeometry width="30" height="30" as="geometry">
            <mxRectangle width="30" height="30" as="alternateBounds" />
          </mxGeometry>
        </mxCell>
        <mxCell id="4PF7pW_W-e1I4brOJTEJ-57" value="" style="shape=partialRectangle;connectable=0;fillColor=none;top=0;left=0;bottom=0;right=0;align=left;spacingLeft=6;fontStyle=5;overflow=hidden;whiteSpace=wrap;html=1;" parent="4PF7pW_W-e1I4brOJTEJ-55" vertex="1">
          <mxGeometry x="30" width="20" height="30" as="geometry">
            <mxRectangle width="20" height="30" as="alternateBounds" />
          </mxGeometry>
        </mxCell>
        <mxCell id="4PF7pW_W-e1I4brOJTEJ-58" value="" style="shape=table;startSize=0;container=1;collapsible=1;childLayout=tableLayout;fixedRows=1;rowLines=0;fontStyle=0;align=center;resizeLast=1;strokeColor=none;fillColor=none;collapsible=0;" parent="1" vertex="1">
          <mxGeometry x="30" y="-5" width="50" height="30" as="geometry" />
        </mxCell>
        <mxCell id="4PF7pW_W-e1I4brOJTEJ-59" value="" style="shape=tableRow;horizontal=0;startSize=0;swimlaneHead=0;swimlaneBody=0;fillColor=none;collapsible=0;dropTarget=0;points=[[0,0.5],[1,0.5]];portConstraint=eastwest;top=0;left=0;right=0;bottom=1;" parent="4PF7pW_W-e1I4brOJTEJ-58" vertex="1">
          <mxGeometry width="50" height="30" as="geometry" />
        </mxCell>
        <mxCell id="4PF7pW_W-e1I4brOJTEJ-60" value="PK" style="shape=partialRectangle;connectable=0;fillColor=none;top=0;left=0;bottom=0;right=0;fontStyle=1;overflow=hidden;whiteSpace=wrap;html=1;" parent="4PF7pW_W-e1I4brOJTEJ-59" vertex="1">
          <mxGeometry width="30" height="30" as="geometry">
            <mxRectangle width="30" height="30" as="alternateBounds" />
          </mxGeometry>
        </mxCell>
        <mxCell id="4PF7pW_W-e1I4brOJTEJ-61" value="" style="shape=partialRectangle;connectable=0;fillColor=none;top=0;left=0;bottom=0;right=0;align=left;spacingLeft=6;fontStyle=5;overflow=hidden;whiteSpace=wrap;html=1;" parent="4PF7pW_W-e1I4brOJTEJ-59" vertex="1">
          <mxGeometry x="30" width="20" height="30" as="geometry">
            <mxRectangle width="20" height="30" as="alternateBounds" />
          </mxGeometry>
        </mxCell>
        <mxCell id="4PF7pW_W-e1I4brOJTEJ-62" value="" style="shape=table;startSize=0;container=1;collapsible=1;childLayout=tableLayout;fixedRows=1;rowLines=0;fontStyle=0;align=center;resizeLast=1;strokeColor=none;fillColor=none;collapsible=0;" parent="1" vertex="1">
          <mxGeometry x="694" y="-1" width="50" height="30" as="geometry" />
        </mxCell>
        <mxCell id="4PF7pW_W-e1I4brOJTEJ-63" value="" style="shape=tableRow;horizontal=0;startSize=0;swimlaneHead=0;swimlaneBody=0;fillColor=none;collapsible=0;dropTarget=0;points=[[0,0.5],[1,0.5]];portConstraint=eastwest;top=0;left=0;right=0;bottom=1;" parent="4PF7pW_W-e1I4brOJTEJ-62" vertex="1">
          <mxGeometry width="50" height="30" as="geometry" />
        </mxCell>
        <mxCell id="4PF7pW_W-e1I4brOJTEJ-64" value="PK" style="shape=partialRectangle;connectable=0;fillColor=none;top=0;left=0;bottom=0;right=0;fontStyle=1;overflow=hidden;whiteSpace=wrap;html=1;" parent="4PF7pW_W-e1I4brOJTEJ-63" vertex="1">
          <mxGeometry width="30" height="30" as="geometry">
            <mxRectangle width="30" height="30" as="alternateBounds" />
          </mxGeometry>
        </mxCell>
        <mxCell id="4PF7pW_W-e1I4brOJTEJ-65" value="" style="shape=partialRectangle;connectable=0;fillColor=none;top=0;left=0;bottom=0;right=0;align=left;spacingLeft=6;fontStyle=5;overflow=hidden;whiteSpace=wrap;html=1;" parent="4PF7pW_W-e1I4brOJTEJ-63" vertex="1">
          <mxGeometry x="30" width="20" height="30" as="geometry">
            <mxRectangle width="20" height="30" as="alternateBounds" />
          </mxGeometry>
        </mxCell>
        <mxCell id="4PF7pW_W-e1I4brOJTEJ-66" value="" style="shape=table;startSize=0;container=1;collapsible=1;childLayout=tableLayout;fixedRows=1;rowLines=0;fontStyle=0;align=center;resizeLast=1;strokeColor=none;fillColor=none;collapsible=0;" parent="1" vertex="1">
          <mxGeometry x="540" y="210" width="50" height="30" as="geometry" />
        </mxCell>
        <mxCell id="4PF7pW_W-e1I4brOJTEJ-67" value="" style="shape=tableRow;horizontal=0;startSize=0;swimlaneHead=0;swimlaneBody=0;fillColor=none;collapsible=0;dropTarget=0;points=[[0,0.5],[1,0.5]];portConstraint=eastwest;top=0;left=0;right=0;bottom=1;" parent="4PF7pW_W-e1I4brOJTEJ-66" vertex="1">
          <mxGeometry width="50" height="30" as="geometry" />
        </mxCell>
        <mxCell id="4PF7pW_W-e1I4brOJTEJ-68" value="PK" style="shape=partialRectangle;connectable=0;fillColor=none;top=0;left=0;bottom=0;right=0;fontStyle=1;overflow=hidden;whiteSpace=wrap;html=1;" parent="4PF7pW_W-e1I4brOJTEJ-67" vertex="1">
          <mxGeometry width="30" height="30" as="geometry">
            <mxRectangle width="30" height="30" as="alternateBounds" />
          </mxGeometry>
        </mxCell>
        <mxCell id="4PF7pW_W-e1I4brOJTEJ-69" value="" style="shape=partialRectangle;connectable=0;fillColor=none;top=0;left=0;bottom=0;right=0;align=left;spacingLeft=6;fontStyle=5;overflow=hidden;whiteSpace=wrap;html=1;" parent="4PF7pW_W-e1I4brOJTEJ-67" vertex="1">
          <mxGeometry x="30" width="20" height="30" as="geometry">
            <mxRectangle width="20" height="30" as="alternateBounds" />
          </mxGeometry>
        </mxCell>
        <mxCell id="4PF7pW_W-e1I4brOJTEJ-70" value="" style="shape=table;startSize=0;container=1;collapsible=1;childLayout=tableLayout;fixedRows=1;rowLines=0;fontStyle=0;align=center;resizeLast=1;strokeColor=none;fillColor=none;collapsible=0;" parent="1" vertex="1">
          <mxGeometry x="818" y="210" width="50" height="30" as="geometry" />
        </mxCell>
        <mxCell id="4PF7pW_W-e1I4brOJTEJ-71" value="" style="shape=tableRow;horizontal=0;startSize=0;swimlaneHead=0;swimlaneBody=0;fillColor=none;collapsible=0;dropTarget=0;points=[[0,0.5],[1,0.5]];portConstraint=eastwest;top=0;left=0;right=0;bottom=1;" parent="4PF7pW_W-e1I4brOJTEJ-70" vertex="1">
          <mxGeometry width="50" height="30" as="geometry" />
        </mxCell>
        <mxCell id="4PF7pW_W-e1I4brOJTEJ-72" value="PK" style="shape=partialRectangle;connectable=0;fillColor=none;top=0;left=0;bottom=0;right=0;fontStyle=1;overflow=hidden;whiteSpace=wrap;html=1;" parent="4PF7pW_W-e1I4brOJTEJ-71" vertex="1">
          <mxGeometry width="30" height="30" as="geometry">
            <mxRectangle width="30" height="30" as="alternateBounds" />
          </mxGeometry>
        </mxCell>
        <mxCell id="4PF7pW_W-e1I4brOJTEJ-73" value="" style="shape=partialRectangle;connectable=0;fillColor=none;top=0;left=0;bottom=0;right=0;align=left;spacingLeft=6;fontStyle=5;overflow=hidden;whiteSpace=wrap;html=1;" parent="4PF7pW_W-e1I4brOJTEJ-71" vertex="1">
          <mxGeometry x="30" width="20" height="30" as="geometry">
            <mxRectangle width="20" height="30" as="alternateBounds" />
          </mxGeometry>
        </mxCell>
        <mxCell id="4PF7pW_W-e1I4brOJTEJ-74" value="" style="shape=table;startSize=0;container=1;collapsible=1;childLayout=tableLayout;fixedRows=1;rowLines=0;fontStyle=0;align=center;resizeLast=1;strokeColor=none;fillColor=none;collapsible=0;" parent="1" vertex="1">
          <mxGeometry x="430" y="395" width="50" height="30" as="geometry" />
        </mxCell>
        <mxCell id="4PF7pW_W-e1I4brOJTEJ-75" value="" style="shape=tableRow;horizontal=0;startSize=0;swimlaneHead=0;swimlaneBody=0;fillColor=none;collapsible=0;dropTarget=0;points=[[0,0.5],[1,0.5]];portConstraint=eastwest;top=0;left=0;right=0;bottom=1;" parent="4PF7pW_W-e1I4brOJTEJ-74" vertex="1">
          <mxGeometry width="50" height="30" as="geometry" />
        </mxCell>
        <mxCell id="4PF7pW_W-e1I4brOJTEJ-76" value="PK" style="shape=partialRectangle;connectable=0;fillColor=none;top=0;left=0;bottom=0;right=0;fontStyle=1;overflow=hidden;whiteSpace=wrap;html=1;" parent="4PF7pW_W-e1I4brOJTEJ-75" vertex="1">
          <mxGeometry width="30" height="30" as="geometry">
            <mxRectangle width="30" height="30" as="alternateBounds" />
          </mxGeometry>
        </mxCell>
        <mxCell id="4PF7pW_W-e1I4brOJTEJ-77" value="" style="shape=partialRectangle;connectable=0;fillColor=none;top=0;left=0;bottom=0;right=0;align=left;spacingLeft=6;fontStyle=5;overflow=hidden;whiteSpace=wrap;html=1;" parent="4PF7pW_W-e1I4brOJTEJ-75" vertex="1">
          <mxGeometry x="30" width="20" height="30" as="geometry">
            <mxRectangle width="20" height="30" as="alternateBounds" />
          </mxGeometry>
        </mxCell>
        <mxCell id="4PF7pW_W-e1I4brOJTEJ-78" value="" style="shape=table;startSize=0;container=1;collapsible=1;childLayout=tableLayout;fixedRows=1;rowLines=0;fontStyle=0;align=center;resizeLast=1;strokeColor=none;fillColor=none;collapsible=0;" parent="1" vertex="1">
          <mxGeometry x="110" y="390" width="50" height="30" as="geometry" />
        </mxCell>
        <mxCell id="4PF7pW_W-e1I4brOJTEJ-79" value="" style="shape=tableRow;horizontal=0;startSize=0;swimlaneHead=0;swimlaneBody=0;fillColor=none;collapsible=0;dropTarget=0;points=[[0,0.5],[1,0.5]];portConstraint=eastwest;top=0;left=0;right=0;bottom=1;" parent="4PF7pW_W-e1I4brOJTEJ-78" vertex="1">
          <mxGeometry width="50" height="30" as="geometry" />
        </mxCell>
        <mxCell id="4PF7pW_W-e1I4brOJTEJ-80" value="PK" style="shape=partialRectangle;connectable=0;fillColor=none;top=0;left=0;bottom=0;right=0;fontStyle=1;overflow=hidden;whiteSpace=wrap;html=1;" parent="4PF7pW_W-e1I4brOJTEJ-79" vertex="1">
          <mxGeometry width="20" height="30" as="geometry">
            <mxRectangle width="20" height="30" as="alternateBounds" />
          </mxGeometry>
        </mxCell>
        <mxCell id="4PF7pW_W-e1I4brOJTEJ-81" value="" style="shape=partialRectangle;connectable=0;fillColor=none;top=0;left=0;bottom=0;right=0;align=left;spacingLeft=6;fontStyle=5;overflow=hidden;whiteSpace=wrap;html=1;" parent="4PF7pW_W-e1I4brOJTEJ-79" vertex="1">
          <mxGeometry x="20" width="30" height="30" as="geometry">
            <mxRectangle width="30" height="30" as="alternateBounds" />
          </mxGeometry>
        </mxCell>
      </root>
    </mxGraphModel>
  </diagram>
</mxfile>
